HIERARCHY
ROOT ui
{
	 OFFSET 0 0 0
	 CHANNELS 3 XPosition YPosition Z Position
	 EndSite
	 {
	 OFFSET 0 -1 0
	 }
}
ROOT li
{
	 OFFSET 0 0 0
	 CHANNELS 3 XPosition YPosition Z Position
	 EndSite
	 {
	 OFFSET 0 -1 0
	 }
}
ROOT ul
{
	 OFFSET 0 0 0
	 CHANNELS 3 XPosition YPosition Z Position
	 EndSite
	 {
	 OFFSET 0 -1 0
	 }
}
ROOT ll
{
	 OFFSET 0 0 0
	 CHANNELS 3 XPosition YPosition Z Position
	 EndSite
	 {
	 OFFSET 0 -1 0
	 }
}
ROOT tt
{
	 OFFSET 0 0 0
	 CHANNELS 3 XPosition YPosition Z Position
	 EndSite
	 {
	 OFFSET 0 -1 0
	 }
}
ROOT tb
{
	 OFFSET 0 0 0
	 CHANNELS 3 XPosition YPosition Z Position
	 EndSite
	 {
	 OFFSET 0 -1 0
	 }
}
ROOT td
{
	 OFFSET 0 0 0
	 CHANNELS 3 XPosition YPosition Z Position
	 EndSite
	 {
	 OFFSET 0 -1 0
	 }
}
ROOT v
{
	 OFFSET 0 0 0
	 CHANNELS 3 XPosition YPosition Z Position
	 EndSite
	 {
	 OFFSET 0 -1 0
	 }
}
ROOT bn
{
	 OFFSET 0 0 0
	 CHANNELS 3 XPosition YPosition Z Position
	 EndSite
	 {
	 OFFSET 0 -1 0
	 }
}
MOTION
Frames: 13
Frame Time: 0.002
-0.00923477554321289	-0.0016500300168991089	0		0.3957870178222656	-2.42507373046875	0		-1.121710205078125	0.06652964019775391	0		-0.6902349243164062	-2.908131103515625	0		1.4480762939453125	-0.9397040405273438	0		3.246540771484375	-0.16351400756835938	0		4.43455810546875	-0.07241902160644531	0		5.5393583984375	0.1685827178955078	0		-0.28446929931640624	5.91082177734375	0		
-0.057087108612060546	-7.501800060272217E-4	0		0.4007629699707031	-2.4256416015625	0		-1.116568115234375	0.06606292724609375	0		-0.6743580322265625	-2.9167177734375	0		1.471100830078125	-0.9464915161132812	0		3.20969384765625	-0.16092274475097657	0		4.43469287109375	-0.07419117736816407	0		5.53550732421875	0.16774681091308594	0		-0.2789376220703125	5.91029931640625	0		
-0.0410221061706543	0.008606310844421386	0		0.393602294921875	-2.4241220703125	0		-1.0875745849609375	0.06638043975830078	0		-0.6665347900390625	-2.91325341796875	0		1.4839947509765625	-0.9502098999023437	0		3.26562109375	-0.1671158142089844	0		4.44473779296875	-0.06805663299560546	0		5.5594912109375	0.1656688995361328	0		-0.257484130859375	5.91962841796875	0		
-0.027258708953857423	0.006973228931427002	0		0.44424258422851565	-2.422095703125	0		-1.0937138671875	0.07598279571533204	0		-0.626992919921875	-2.91906591796875	0		1.4827564697265625	-0.9448140869140625	0		3.2394677734375	-0.1576228790283203	0		4.45959033203125	-0.05996295928955078	0		5.558349609375	0.17380404663085938	0		-0.232376953125	5.91391650390625	0		
-0.06175601196289063	0.004748977184295654	0		0.41457061767578124	-2.42739111328125	0		-1.102284423828125	0.06460308837890626	0		-0.5907147827148438	-2.926857177734375	0		1.4792421875	-0.9423948364257813	0		3.245865234375	-0.17139585876464844	0		4.453986328125	-0.07568714904785157	0		5.549810546875	0.16501628112792968	0		-0.24844459533691407	5.91955126953125	0		
-0.02750041198730469	0.0069450588226318355	0		0.44664224243164063	-2.43020556640625	0		-1.098050048828125	0.06411664581298829	0		-0.6616340942382812	-2.92473095703125	0		1.4803927001953125	-0.9460053100585938	0		3.2381376953125	-0.16603219604492186	0		4.4582216796875	-0.07647586822509765	0		5.5489912109375	0.1571866912841797	0		-0.2589638366699219	5.90814404296875	0		
-0.06066384887695313	-0.003273267984390259	0		0.43238043212890626	-2.436613525390625	0		-1.09412548828125	0.0636370849609375	0		-0.5770126342773437	-2.941931884765625	0		1.49021044921875	-0.9526762084960938	0		3.2420498046875	-0.1667469024658203	0		4.45713818359375	-0.07819462585449219	0		5.55798046875	0.16330331420898436	0		-0.2386368408203125	5.91748046875	0		
-0.019978994369506835	0.005883878231048584	0		0.4378759765625	-2.43517724609375	0		-1.077427734375	0.07405374908447265	0		-0.6404529418945313	-2.929847412109375	0		1.502736328125	-0.9563531494140625	0		3.2397021484375	-0.16038143920898437	0		4.48180126953125	-0.07210633850097656	0		5.56158837890625	0.16250161743164063	0		-0.23573355102539062	5.9179765625	0		
-0.043700531005859376	0.005612072944641114	0		0.43313998413085936	-2.424635498046875	0		-0.9981588745117187	0.0719319076538086	0		-0.5783095703125	-2.9308408203125	0		1.5000230712890625	-0.9508765258789063	0		3.28090087890625	-0.16936572265625	0		4.47916064453125	-0.06374790191650391	0		5.564873046875	0.16174391174316408	0		-0.17818399047851563	5.91800830078125	0		
0.03924949645996094	0.003423824071884155	0		0.46887295532226564	-2.4404306640625	0		-1.08024365234375	0.0662260513305664	0		-0.63951416015625	-2.9367470703125	0		1.502947021484375	-0.9514256591796875	0		3.287908203125	-0.16402070617675782	0		4.477064453125	-0.07135721588134766	0		5.58684033203125	0.16086735534667967	0		-0.19394334411621095	5.92269189453125	0		
-0.011082460403442383	0.004417144775390625	0		0.4625169067382813	-2.432839111328125	0		-1.0056309814453126	0.060159515380859375	0		-0.5670308837890625	-2.94581103515625	0		1.49648388671875	-0.9618688354492188	0		3.2705166015625	-0.16942868041992187	0		4.48563623046875	-0.0820222930908203	0		5.57950341796875	0.16029238891601563	0		-0.24122161865234376	5.90666748046875	0		
-0.019806140899658202	-0.005938138961791992	0		0.44473992919921873	-2.44112890625	0		-1.0792535400390626	0.06140602874755859	0		-0.6366974487304687	-2.93961279296875	0		1.5108192138671874	-0.962471435546875	0		3.2568759765625	-0.1698362579345703	0		4.488001953125	-0.08259626007080079	0		5.5728720703125	0.15975553894042968	0		-0.22260615539550782	5.915080078125	0		
-0.001680003046989441	-0.0015151360034942626	0		0.450798095703125	-2.437611083984375	0		-1.0640726318359375	0.0718812484741211	0		-0.549804931640625	-2.9537841796875	0		1.5159136962890625	-0.9589708862304688	0		3.29391796875	-0.17466110229492188	0		4.463158203125	-0.07489493560791016	0		5.579029296875	0.16714764404296875	0		-0.22037869262695312	5.91464990234375	0		
